Coordinates
version=1
nRows=32
nColumns=12
inDegrees=yes

Units are S.I. units (second, meters, Newtons, ...)
Angles are in degrees

endheader
time	SC_y	SC_z	SC_x	AC_y	AC_z	AC_x	GH_y	GH_z	GH_yy	EL_x	PS_y
       0.0              -33.64          38.65          23.01          63.98         -14.35          6.873          84.36          86.92         -157.2          67.12          65.46
  0.004139              -33.64          38.65          23.01          63.98         -14.35          6.872          84.37          86.92         -157.1          67.13          65.47
  0.008277              -33.65          38.65          23.01          63.98         -14.35           6.87          84.37          86.92         -157.1          67.13          65.47
   0.01242              -33.65          38.65          23.01          63.98         -14.35          6.869          84.37          86.92         -157.0          67.14          65.47
   0.01655              -33.65          38.64          23.01          63.97         -14.35          6.867          84.38          86.91         -157.0          67.14          65.48
   0.02069              -33.65          38.64          23.01          63.97         -14.35          6.865          84.38          86.91         -156.9          67.15          65.48
   0.02483              -33.65          38.64          23.01          63.97         -14.34          6.863          84.38          86.91         -156.9          67.16          65.48
   0.02897              -33.65          38.64          23.01          63.96         -14.34          6.861          84.39          86.91         -156.8          67.17          65.49
   0.03311              -33.65          38.64          23.01          63.96         -14.34          6.859          84.39           86.9         -156.8          67.18          65.49
   0.03725              -33.66          38.63          23.01          63.95         -14.34          6.857           84.4           86.9         -156.7          67.19          65.49
   0.04139              -33.66          38.63          23.01          63.95         -14.34          6.854           84.4           86.9         -156.6           67.2           65.5
   0.04552              -33.66          38.63          23.01          63.94         -14.33          6.851          84.41          86.89         -156.6          67.21           65.5
   0.04966              -33.66          38.63          23.01          63.94         -14.33          6.849          84.41          86.89         -156.5          67.22          65.51
    0.0538              -33.67          38.62          23.01          63.93         -14.33          6.845          84.42          86.88         -156.4          67.23          65.52
   0.05794              -33.67          38.62          23.02          63.93         -14.33          6.842          84.43          86.88         -156.3          67.25          65.52
   0.06208              -33.67          38.62          23.02          63.92         -14.32          6.838          84.43          86.87         -156.2          67.26          65.53
   0.06622              -33.67          38.61          23.02          63.91         -14.32          6.834          84.44          86.87         -156.1          67.28          65.54
   0.07035              -33.68          38.61          23.02           63.9         -14.32           6.83          84.45          86.86         -156.0          67.29          65.54
   0.07449              -33.68           38.6          23.02          63.89         -14.31          6.825          84.46          86.85         -155.8          67.31          65.55
   0.07863              -33.69           38.6          23.02          63.88         -14.31           6.82          84.47          86.85         -155.7          67.33          65.56
   0.08277              -33.69          38.59          23.02          63.87          -14.3          6.814          84.48          86.84         -155.5          67.36          65.57
   0.08691               -33.7          38.59          23.03          63.86          -14.3          6.808           84.5          86.83         -155.3          67.38          65.59
   0.09105               -33.7          38.58          23.03          63.85         -14.29          6.801          84.51          86.82         -155.1          67.41           65.6
   0.09519              -33.71          38.57          23.03          63.83         -14.29          6.793          84.52          86.81         -154.9          67.44          65.61
   0.09932              -33.71          38.56          23.03          63.82         -14.28          6.785          84.54          86.79         -154.7          67.48          65.63
    0.1035              -33.72          38.55          23.04           63.8         -14.27          6.775          84.56          86.78         -154.4          67.52          65.65
    0.1076              -33.73          38.54          23.04          63.78         -14.27          6.765          84.58          86.77         -154.1          67.56          65.67
    0.1117              -33.74          38.53          23.04          63.75         -14.26          6.753          84.61          86.75         -153.8          67.61          65.69
    0.1159              -33.75          38.52          23.05          63.73         -14.25          6.739          84.63          86.73         -153.4          67.66          65.72
      0.12              -33.76           38.5          23.05           63.7         -14.23          6.724          84.66          86.71         -153.0          67.73          65.74
    0.1242              -33.78          38.49          23.06          63.66         -14.22          6.706           84.7          86.68         -152.5           67.8          65.78
    0.1283              -33.79          38.47          23.07          63.62          -14.2          6.686          84.74          86.65         -151.9          67.88          65.82
